<svg width="25" height="15" viewBox="0 0 25 15" fill="none" xmlns="http://www.w3.org/2000/svg">
<path d="M24.4674 1.03125C24.6067 0.46875 24.4674 0 23.6317 0H20.8924C20.196 0 19.871 0.375 19.6853 0.796875C19.6853 0.796875 18.2925 4.21875 16.3425 6.46875C15.6925 7.07812 15.414 7.3125 15.0426 7.3125C14.9033 7.3125 14.6247 7.07812 14.6247 6.51562V1.03125C14.6247 0.328125 14.439 0 13.8354 0H9.5641C9.09982 0 8.86768 0.328125 8.86768 0.65625C8.86768 1.3125 9.84266 1.45312 9.93552 3.32812V7.40625C9.93552 8.29688 9.79624 8.48438 9.42482 8.48438C8.49626 8.48438 6.26773 5.01562 4.92133 1.07812C4.64277 0.328125 4.3642 0 3.66779 0H0.928553C0.185711 0 0 0.375 0 0.796875C0 1.54688 0.928553 5.15625 4.31777 9.98438C6.59273 13.2656 9.79624 15 12.6748 15C14.3926 15 14.6247 14.625 14.6247 13.9688C14.6247 10.8281 14.4854 10.5 15.3211 10.5C15.739 10.5 16.4354 10.7344 18.0604 12.3281C19.9175 14.2031 20.2425 15 21.2639 15H24.0031C24.7924 15 25.1638 14.625 24.9317 13.8281C24.4209 12.2344 20.9389 8.85938 20.7532 8.625C20.3353 8.10938 20.4746 7.875 20.7532 7.40625C20.7532 7.40625 24.096 2.625 24.4674 1.03125Z" fill="#B2B2B2"/>
</svg>
