<svg width="22" height="22" viewBox="0 0 22 22" fill="none" xmlns="http://www.w3.org/2000/svg">
<path d="M4.58333 0C2.06281 0 0 2.06281 0 4.58333V17.4167C0 19.9372 2.06281 22 4.58333 22H17.4167C19.9372 22 22 19.9372 22 17.4167V4.58333C22 2.06281 19.9372 0 17.4167 0H4.58333ZM15.5833 3.66667H17.4167C17.9239 3.66667 18.3333 4.07611 18.3333 4.58333C18.3333 5.09056 17.9239 5.5 17.4167 5.5H15.5833C15.0761 5.5 14.6667 5.09056 14.6667 4.58333C14.6667 4.07611 15.0761 3.66667 15.5833 3.66667ZM11 7.33333C13.0359 7.33333 14.6667 8.9641 14.6667 11C14.6667 13.0359 13.0359 14.6667 11 14.6667C8.9641 14.6667 7.33333 13.0359 7.33333 11C7.33333 8.9641 8.9641 7.33333 11 7.33333ZM1.83333 8.55556H6.08247C5.71304 9.29359 5.5 10.1219 5.5 11C5.5 14.0267 7.97329 16.5 11 16.5C14.0267 16.5 16.5 14.0267 16.5 11C16.5 10.1219 16.287 9.29359 15.9175 8.55556H20.1667V17.4167C20.1667 18.9466 18.9466 20.1667 17.4167 20.1667H4.58333C3.05342 20.1667 1.83333 18.9466 1.83333 17.4167V8.55556Z" fill="#B2B2B2"/>
</svg>
